<svg width="177" height="70" viewBox="0 0 177 70" fill="none" xmlns="http://www.w3.org/2000/svg">
<path d="M79.601 35.0341C80.1404 35.9435 81.1009 37.3895 82.451 39.0876C83.8012 40.7858 85.5664 42.7167 87.6112 44.6366C89.6509 46.5545 91.9773 48.4582 94.3067 50.2096C96.625 51.9742 98.9881 53.5265 101.093 54.8206C110.853 60.776 121.859 64.7774 133.199 65.7109C144.492 66.6313 156.137 64.4503 166.163 59.0209C167.744 58.1947 169.759 56.8882 171.425 55.8659C171.85 55.6243 172.238 55.3736 172.598 55.1645C172.958 54.9554 173.291 54.7829 173.588 54.655C174.174 54.4074 174.609 54.3588 174.782 54.6118C175.142 55.1413 174.626 56.2148 173.334 57.672C171.991 59.055 169.857 60.8278 166.925 62.3482C159.866 66.1119 152.052 68.2702 144.183 68.988C136.3 69.724 128.352 68.9565 120.765 67.0646C109.635 64.2954 99.3121 58.8336 90.3477 51.7937C85.8614 48.2838 81.6184 44.317 78.1849 39.5784C76.4792 37.2107 75.0091 34.6368 73.8771 31.8924C72.7653 29.1562 72.0254 26.1804 71.8387 23.1682C71.6609 20.467 71.9272 17.7384 72.6025 15.0985C73.2828 12.4606 74.3984 9.90412 76.0064 7.63538C77.5993 5.36054 79.7616 3.45778 82.2227 2.11894C84.6878 0.769947 87.5174 0.111921 90.292 0.111131C91.6802 0.122926 93.0553 0.283019 94.3961 0.571109C95.7349 0.864281 97.0284 1.29864 98.2768 1.81526C100.768 2.87593 103.057 4.33879 105.088 6.07582C109.138 9.56309 112.285 14.1857 113.701 19.4851C114.018 20.7419 114.243 21.9793 114.395 23.2401C114.536 24.4968 114.603 25.7646 114.59 27.0416C114.562 28.3124 114.456 29.5873 114.265 30.857C114.056 32.1258 113.754 33.3802 113.36 34.6154C112.548 37.0704 111.3 39.449 109.611 41.4546C107.948 43.4825 105.898 45.1649 103.691 46.4703C99.2421 49.0913 94.2869 50.3021 89.4208 50.8871C86.9772 51.1694 84.5296 51.3024 82.1064 51.2739L78.4839 51.1859L76.6733 51.1333L74.8694 50.9771C58.228 49.7079 42.1399 44.0596 28.0555 35.3808C24.719 33.3699 20.7301 30.8589 17.3597 28.208C16.6399 27.6865 15.8689 27.0025 15.0244 26.2829C14.187 25.5603 13.2874 24.7888 12.3928 24.0194C10.6596 22.4145 8.9945 20.7427 7.76126 19.4936C6.76034 18.3503 5.7315 17.1603 4.68151 16.1094C4.38298 15.8055 4.09749 15.5128 3.82801 15.2384C3.56972 14.9508 3.3336 14.6663 3.10642 14.403C2.65616 13.8665 2.26606 13.3837 1.93109 12.9529C1.26115 12.0911 0.815819 11.4265 0.592134 10.952C0.149795 10.005 0.596075 9.81323 1.86435 10.2374C2.42201 10.4215 2.37439 9.72871 3.56729 10.8315C3.61944 10.8762 3.71666 10.9687 3.75875 11.0093C7.44278 14.2597 10.6764 18.0016 14.3633 21.4186C32.7588 37.7316 57.0145 47.3678 81.5936 47.5627C83.4788 47.6336 85.3348 47.5451 87.1993 47.4067C89.0567 47.2714 90.9016 47.0366 92.7051 46.6727C94.5166 46.3179 96.2955 45.8555 97.995 45.2132C99.6895 44.5689 101.341 43.8128 102.824 42.823C104.31 41.8403 105.651 40.6807 106.809 39.3525L107.62 38.3157C107.894 37.9714 108.111 37.5926 108.357 37.231C108.797 36.4754 109.221 35.7015 109.547 34.8819C110.238 33.2588 110.684 31.5188 110.909 29.7483C111.145 27.9767 111.169 26.1664 110.99 24.3804C110.906 23.4011 110.727 22.4248 110.528 21.4697C110.296 20.5371 110.04 19.6064 109.682 18.7113C108.999 16.8986 108.074 15.1773 106.991 13.5281L107.027 13.584C105.848 11.8961 104.44 10.3696 102.876 9.04018C101.324 7.69752 99.5914 6.58335 97.7826 5.68654C96.0662 4.85073 94.23 4.26779 92.3735 3.99572C90.5167 3.75311 88.6257 3.798 86.8465 4.2899C85.946 4.50486 85.091 4.86815 84.2578 5.26397C83.4346 5.69332 82.6541 6.20496 81.9197 6.77657C80.4567 7.93401 79.2166 9.39429 78.2465 11.0406C76.2894 14.3322 75.4444 18.3038 75.5224 22.1347C75.5634 24.0598 75.8478 25.9474 76.3587 27.7671C76.8786 29.6081 77.5814 31.3872 78.4504 33.0739C78.5756 33.3432 78.7713 33.6409 78.9718 33.9702C79.141 34.3045 79.3584 34.6642 79.601 35.0341Z" fill="white"/>
<path d="M176.317 59.4568C176.243 59.8285 175.892 61.1165 175.634 61.9281C175.07 63.8153 174.182 65.6486 172.767 67.0499C172.545 67.2672 172.24 67.6876 171.259 66.9425C170.238 66.169 169.809 65.4932 170.096 65.1602C170.779 64.3376 171.576 63.4958 171.796 62.4028C172.113 60.8355 172.689 59.3841 172.836 57.8187C172.865 57.5586 172.884 57.2945 172.901 57.0355L172.915 56.8699L172.914 56.8282L172.916 56.752C172.921 56.6535 172.918 56.5285 172.824 56.4726C172.761 56.4411 172.684 56.4573 172.62 56.4847C172.592 56.4969 172.559 56.5192 172.534 56.5385L172.497 56.571C172.488 56.5791 172.493 56.5812 172.479 56.5873L171.323 56.9707C170.639 57.2021 169.953 57.4212 169.25 57.5682C168.04 57.8236 166.766 57.7753 165.534 57.9271C165.245 57.9636 164.948 58.2631 164.635 58.3138C164.372 58.3553 163.94 58.4405 163.661 58.3926C163.54 58.3732 163.413 58.3396 163.315 58.4066C162.861 58.7193 162.64 58.3109 162.516 56.8957C162.49 56.5838 162.36 56.1947 162.438 55.96C162.442 55.9499 162.445 55.9275 162.449 55.9174C162.638 55.0011 163.093 55.3092 163.463 55.2047C165.288 54.7016 167.129 54.288 168.967 53.8378L170.664 53.4484C170.949 53.3805 171.229 53.3105 171.508 53.2283L172.064 53.0691C172.322 52.9961 172.582 52.918 172.845 52.8592C173.41 52.7213 174.042 52.5631 174.511 52.8355L174.501 52.8315C174.784 52.8987 175.063 53.0054 175.323 53.1579C175.566 53.3094 175.795 53.4964 175.964 53.7302C176.295 54.1712 176.503 54.6985 176.597 55.2918C176.655 55.5814 176.641 55.9064 176.635 56.2234C176.627 56.5332 176.627 56.8817 176.614 57.16C176.559 57.8884 176.471 58.5852 176.291 59.2455C176.288 59.2973 176.331 59.3796 176.317 59.4568Z" fill="white"/>
</svg>
